<svg width="17" height="17" viewBox="0 0 17 17" fill="none" xmlns="http://www.w3.org/2000/svg">
<path d="M15.2122 0.666687H2.12129C1.31766 0.666687 0.666748 1.3176 0.666748 2.12123V15.2121C0.666748 16.0158 1.31766 16.6667 2.12129 16.6667H15.2122C16.0158 16.6667 16.6667 16.0158 16.6667 15.2121V2.12123C16.6667 1.3176 16.0158 0.666687 15.2122 0.666687ZM5.7242 13.7576H3.57875V6.85432H5.7242V13.7576ZM4.62966 5.86741C3.93802 5.86741 3.37875 5.30669 3.37875 4.61651C3.37875 3.92632 3.93875 3.36632 4.62966 3.36632C5.31911 3.36632 5.87984 3.92705 5.87984 4.61651C5.87984 5.30669 5.31911 5.86741 4.62966 5.86741ZM13.7606 13.7576H11.6166V10.4005C11.6166 9.59978 11.602 8.56996 10.5017 8.56996C9.38529 8.56996 9.21366 9.44196 9.21366 10.3423V13.7576H7.06966V6.85432H9.12784V7.7976H9.15693C9.44348 7.25505 10.1431 6.68269 11.1867 6.68269C13.3591 6.68269 13.7606 8.11251 13.7606 9.97142V13.7576V13.7576Z" fill="#C9C9C9"/>
</svg>
