<svg width="16" height="16" viewBox="0 0 16 16" fill="none" xmlns="http://www.w3.org/2000/svg">
<path d="M0.924072 0.105591V1.98018H14.8911V0.105591H0.924072ZM0.924072 3.66995V5.57094H14.8911V3.66995H0.924072ZM0.924072 7.2343V15.9736C1.49492 15.8088 2.06842 15.3617 2.58744 15.0722L6.07259 13.1258C6.50409 12.8851 6.93677 12.646 7.36632 12.4018C7.50673 12.322 7.74422 12.1233 7.90958 12.1263C8.07253 12.1293 8.30918 12.3294 8.44882 12.4092C8.85115 12.6391 9.25714 12.8645 9.66335 13.0876C10.8914 13.7621 12.1053 14.4623 13.3333 15.1368C13.8082 15.3976 14.3629 15.8527 14.8911 15.9736V7.2343H0.924072Z" fill="#C9C9C9"/>
</svg>
